<?xml version="1.0" standalone="no"?>
<!DOCTYPE svg PUBLIC "-//W3C//DTD SVG 20010904//EN"
 "http://www.w3.org/TR/2001/REC-SVG-20010904/DTD/svg10.dtd">
<svg version="1.0" xmlns="http://www.w3.org/2000/svg"
 width="899.000000pt" height="1024.000000pt" viewBox="0 0 899.000000 1024.000000"
 preserveAspectRatio="xMidYMid meet">

<g transform="translate(0.000000,1024.000000) scale(0.100000,-0.100000)"
fill="#000000" stroke="none">
<path d="M5275 10225 c-66 -7 -133 -18 -148 -24 -16 -6 -43 -11 -60 -11 -26 0
-148 -32 -267 -70 -46 -14 -177 -78 -250 -120 -139 -81 -291 -252 -346 -389
-50 -125 -64 -202 -64 -361 0 -166 4 -193 60 -362 21 -64 35 -119 32 -122 -3
-4 -24 -6 -46 -6 -111 0 -239 -65 -345 -175 -119 -124 -166 -236 -159 -376 7
-130 33 -184 140 -295 140 -145 267 -201 492 -216 22 -2 41 -8 43 -13 3 -10
-113 -75 -133 -75 -24 0 -206 -129 -272 -193 -88 -86 -131 -143 -182 -242 -52
-100 -82 -195 -90 -287 -3 -43 -9 -80 -11 -83 -3 -2 -52 12 -110 33 -91 32
-116 37 -194 37 -72 0 -103 -5 -155 -25 -88 -34 -187 -127 -230 -217 -51 -105
-57 -144 -59 -379 -2 -169 -6 -236 -21 -305 -27 -124 -30 -129 -89 -129 -27 0
-95 -5 -152 -10 -469 -47 -1001 -294 -1294 -601 -72 -76 -186 -226 -225 -297
-8 -15 -30 -52 -47 -83 -91 -156 -173 -417 -173 -547 0 -37 -4 -72 -8 -79 -4
-6 -39 -28 -77 -49 -39 -20 -97 -56 -130 -79 -83 -59 -280 -264 -340 -355 -66
-99 -185 -342 -223 -456 -63 -184 -114 -422 -128 -594 -5 -67 -3 -81 20 -130
33 -69 33 -97 0 -141 -22 -29 -25 -41 -21 -84 6 -55 57 -217 89 -279 18 -35
20 -58 19 -207 -2 -183 6 -236 60 -394 38 -110 47 -128 115 -231 98 -148 273
-295 422 -353 126 -50 287 -65 403 -37 53 13 59 12 145 -16 157 -52 289 -68
391 -49 26 5 77 15 113 21 76 14 196 51 294 92 83 34 96 28 96 -43 0 -68 12
-93 82 -166 144 -150 482 -297 948 -412 69 -17 168 -42 220 -56 52 -13 131
-31 175 -39 44 -8 134 -25 200 -39 167 -34 305 -55 530 -78 61 -6 121 -14 135
-18 35 -10 143 1 147 16 7 20 -65 35 -165 32 -113 -2 -292 15 -395 37 -137 31
-152 33 -193 34 -27 0 -54 9 -77 24 -35 24 -37 24 -76 9 -37 -15 -43 -14 -118
10 -43 15 -107 31 -143 37 -36 7 -119 27 -185 45 -66 18 -141 38 -166 44 -25
5 -77 24 -115 42 -38 18 -100 40 -139 50 -104 25 -266 87 -302 115 -18 13 -54
34 -80 45 -26 11 -58 33 -70 48 -12 15 -42 36 -66 45 -60 23 -94 73 -103 151
-4 33 -15 74 -25 91 -35 58 -23 92 47 127 17 9 58 51 90 93 96 124 238 264
268 264 20 0 27 6 32 28 11 45 43 101 83 145 55 62 121 170 121 198 -1 24 -1
23 -29 -8 -15 -18 -49 -71 -75 -118 -34 -61 -66 -101 -110 -140 -73 -64 -282
-291 -331 -361 -47 -65 -72 -83 -202 -143 -207 -94 -350 -126 -575 -126 -131
0 -160 3 -173 16 -13 13 -14 20 -4 43 21 45 2 47 -106 14 -89 -27 -114 -31
-225 -32 -135 0 -199 13 -295 61 -196 99 -308 231 -439 513 -40 88 -51 169
-50 365 1 126 2 133 38 225 59 147 51 185 -22 111 -22 -23 -45 -41 -51 -41
-25 0 -40 51 -52 170 -38 395 56 877 237 1220 140 263 334 474 527 572 163 82
310 118 519 125 137 5 181 15 126 28 -13 3 -43 9 -68 15 -72 15 -296 12 -365
-6 -103 -27 -112 -27 -118 -10 -12 30 88 326 153 455 170 340 382 566 698 745
163 93 432 195 645 246 91 22 250 36 291 26 39 -10 34 -48 -19 -158 -36 -76
-54 -100 -96 -133 -116 -91 -301 -322 -407 -507 -77 -136 -192 -368 -192 -388
0 -10 -14 -44 -30 -75 -17 -31 -30 -63 -30 -71 0 -8 -11 -36 -24 -62 -13 -26
-35 -94 -50 -152 -29 -111 -42 -134 -92 -155 -66 -27 -178 -110 -258 -191 -46
-46 -91 -84 -100 -84 -9 0 -33 8 -54 19 -52 26 -152 50 -184 44 -15 -3 -33
-12 -40 -20 -10 -12 -9 -18 7 -29 10 -8 28 -14 39 -14 18 -1 16 -3 -8 -17 -16
-8 -66 -30 -112 -49 -182 -73 -326 -158 -476 -282 -149 -123 -297 -347 -314
-476 -10 -67 10 -58 44 20 43 97 91 163 192 268 101 105 186 173 315 251 212
128 487 211 516 155 4 -8 10 -28 14 -43 3 -16 11 -27 18 -24 7 2 35 37 64 77
63 89 125 154 221 231 76 62 116 79 135 60 7 -7 11 -69 12 -173 1 -127 5 -173
18 -207 9 -24 17 -55 17 -68 0 -14 16 -72 35 -130 33 -98 68 -164 120 -223 12
-14 27 -43 33 -65 25 -88 292 -330 472 -427 36 -20 89 -43 117 -53 60 -19 88
-48 98 -102 21 -112 122 -235 260 -315 100 -59 135 -73 135 -54 0 20 -32 45
-83 62 -73 25 -174 117 -224 204 -23 41 -49 98 -58 127 -11 36 -25 59 -51 80
-19 15 -51 43 -71 60 -29 27 -43 33 -81 33 -56 0 -105 31 -150 94 -22 30 -42
46 -72 55 -27 8 -48 23 -63 46 -12 18 -36 40 -54 49 -18 8 -44 34 -59 56 -25
37 -26 43 -15 78 13 38 7 64 -21 104 -7 9 -9 21 -4 25 4 4 13 0 20 -10 17 -23
39 -22 62 4 10 12 31 27 46 35 19 10 29 25 34 50 7 39 27 51 103 62 56 9 62
26 18 52 -20 12 -41 37 -52 60 -30 65 -85 102 -85 56 0 -26 -48 -66 -79 -66
-25 0 -36 -8 -63 -50 -23 -35 -48 -58 -85 -77 -52 -28 -53 -28 -72 -8 -10 11
-36 63 -57 115 -33 80 -39 108 -41 175 -3 161 -12 341 -19 387 -5 40 -3 54 19
90 13 24 31 63 38 88 7 25 24 62 37 82 20 31 23 45 18 81 -5 34 -2 52 18 92
14 27 28 62 32 78 8 37 82 137 102 137 12 0 14 -10 8 -57 l-6 -58 33 55 c18
30 41 76 50 101 10 25 34 73 54 105 20 32 58 96 84 142 74 125 215 309 300
389 119 111 329 225 494 269 85 23 127 27 281 31 109 3 223 1 285 -6 197 -23
491 -101 617 -165 28 -14 74 -46 102 -71 28 -25 62 -48 77 -51 41 -11 91 -43
98 -63 3 -10 20 -26 38 -36 27 -14 37 -15 56 -6 27 15 61 -3 88 -47 9 -15 27
-39 39 -54 12 -15 28 -44 34 -65 7 -21 30 -76 52 -123 22 -47 43 -103 46 -125
2 -22 16 -64 29 -93 25 -53 25 -53 8 -105 -34 -100 -58 -270 -55 -382 1 -55
-2 -64 -33 -100 -19 -22 -38 -56 -42 -75 -4 -19 -16 -47 -27 -63 -11 -15 -30
-54 -43 -88 -13 -33 -35 -73 -49 -90 -14 -17 -26 -36 -26 -43 0 -7 -15 -43
-34 -82 -19 -38 -42 -93 -52 -123 -12 -34 -26 -56 -38 -59 -16 -4 -18 -12 -13
-60 7 -66 22 -86 31 -42 10 50 30 31 37 -36 4 -32 10 -82 14 -111 5 -33 3 -70
-4 -100 -7 -26 -17 -86 -22 -133 -10 -94 -70 -267 -111 -323 -14 -18 -41 -63
-63 -101 -31 -57 -36 -73 -26 -87 6 -11 11 -32 11 -48 0 -26 -5 -31 -37 -40
-21 -6 -82 -11 -136 -11 -165 0 -332 -37 -406 -89 -14 -10 -48 -30 -76 -45
-129 -69 -190 -109 -308 -205 -23 -19 -79 -59 -125 -89 -73 -47 -168 -121
-320 -248 -23 -19 -47 -45 -53 -56 -9 -17 -2 -14 35 11 25 17 66 49 90 70 44
38 68 56 285 213 58 42 117 86 131 96 52 39 309 202 318 202 5 0 38 15 73 34
225 119 923 67 1340 -100 365 -145 639 -428 639 -660 0 -20 11 -54 24 -77 30
-54 40 -156 26 -280 -8 -71 -22 -120 -60 -214 -50 -126 -100 -207 -215 -348
-97 -120 -100 -125 -88 -144 5 -9 21 -17 35 -19 53 -6 228 222 317 415 76 164
104 278 104 433 2 257 -88 470 -281 672 -176 183 -447 325 -787 413 -182 47
-195 52 -195 80 0 30 87 110 154 141 197 90 419 39 846 -195 101 -55 188 -101
193 -101 19 0 -16 29 -93 80 -131 86 -120 114 66 160 310 77 719 95 1061 45
199 -29 405 -93 557 -173 90 -47 248 -165 304 -228 32 -36 45 -45 54 -36 15
15 -63 131 -130 194 -109 102 -320 215 -492 263 -52 15 -110 33 -129 41 l-34
15 9 52 c5 29 9 142 9 252 0 155 -3 205 -13 223 -8 12 -25 58 -38 102 -51 176
-144 352 -260 495 -107 129 -374 320 -374 265 0 -5 37 -40 83 -78 149 -125
286 -285 362 -424 32 -59 111 -272 136 -368 5 -19 12 -123 15 -231 4 -164 3
-203 -10 -234 l-16 -37 -117 8 c-178 13 -594 11 -698 -4 -196 -28 -353 -66
-474 -114 -87 -34 -99 -33 -193 23 -91 53 -94 61 -75 173 9 50 19 112 22 138
7 56 45 94 146 145 123 63 197 75 444 74 123 0 213 3 205 8 -34 19 -210 34
-345 29 -160 -6 -243 -27 -337 -85 -45 -28 -60 -33 -76 -24 -22 12 -32 51 -25
96 9 55 -16 278 -42 375 -26 97 -74 208 -126 293 -44 72 -40 96 29 156 116
104 274 156 512 167 69 4 166 2 215 -4 89 -10 121 -4 98 19 -6 6 -46 20 -89
32 -67 18 -106 22 -249 22 -147 0 -182 -4 -255 -24 -121 -33 -218 -80 -283
-140 -32 -28 -66 -51 -78 -51 -11 0 -53 30 -94 67 -40 38 -97 89 -125 115 -52
46 -53 47 -45 90 4 24 15 96 25 161 18 116 30 147 56 147 7 0 47 -11 87 -25
113 -38 249 -58 338 -51 110 9 222 40 303 85 39 21 82 41 96 44 14 3 112 7
218 9 161 2 195 0 202 -12 6 -8 10 -55 10 -105 1 -109 24 -190 55 -190 17 0
21 9 26 55 9 73 17 90 43 90 41 0 174 -110 212 -176 14 -24 30 -44 35 -44 14
0 11 8 -31 79 -46 78 -49 95 -17 116 41 27 221 40 358 27 369 -37 672 -178
932 -435 257 -254 416 -626 406 -944 -3 -64 0 -73 24 -102 15 -18 27 -38 27
-45 0 -32 -57 -49 -77 -23 -6 6 -16 29 -22 49 -9 28 -22 41 -54 57 -156 75
-396 67 -567 -19 -44 -22 -60 -36 -58 -48 4 -22 21 -21 177 6 204 36 308 27
447 -37 69 -32 96 -54 186 -144 143 -143 233 -283 318 -493 40 -97 92 -276
105 -362 33 -210 15 -565 -30 -602 -21 -17 -53 -3 -70 31 -9 16 -22 29 -30 29
-19 0 -20 4 19 -108 62 -180 68 -363 15 -467 -98 -191 -323 -329 -554 -341
-49 -2 -127 -6 -172 -9 -77 -4 -83 -3 -83 15 0 11 10 25 23 31 53 28 217 199
217 226 0 8 -31 -13 -69 -47 -213 -191 -439 -313 -712 -384 -138 -36 -305 -50
-504 -43 -186 7 -282 23 -486 82 -120 35 -263 95 -241 103 21 7 110 137 152
222 47 93 90 212 90 244 -1 12 -29 -33 -63 -99 -74 -143 -109 -195 -189 -280
-111 -119 -240 -171 -408 -162 -85 4 -101 2 -152 -21 -32 -13 -58 -27 -58 -31
0 -8 132 -40 197 -48 73 -8 175 14 269 58 45 22 90 39 100 39 11 0 39 -12 64
-26 195 -112 546 -194 805 -189 292 6 621 96 815 225 77 51 83 52 146 23 88
-40 206 -43 347 -8 60 14 116 30 125 34 10 5 49 24 87 42 55 27 93 57 181 144
91 90 117 122 143 178 28 63 31 77 31 174 0 58 -5 122 -11 143 -10 33 -8 44
19 101 32 69 61 159 88 281 l18 78 -22 30 c-36 48 -37 79 -7 124 29 43 30 21
-5 246 -5 30 -15 78 -23 105 -8 28 -24 86 -36 130 -22 79 -129 309 -185 395
-67 103 -133 189 -194 251 l-64 67 1 176 c1 96 -2 192 -8 213 -5 21 -15 63
-21 93 -21 97 -60 208 -111 306 -27 53 -53 102 -58 108 -5 6 -19 29 -31 50
-66 120 -314 368 -462 463 -118 76 -237 135 -323 162 -38 12 -97 30 -130 40
-116 37 -174 43 -385 39 -215 -4 -204 -2 -347 -59 -27 -11 -37 -10 -74 6 -65
30 -89 53 -89 86 0 33 31 69 59 69 24 0 199 44 278 71 67 22 230 102 285 139
18 13 60 50 94 82 50 49 71 62 120 74 80 21 132 53 191 117 80 88 93 168 43
273 -33 68 -33 90 1 151 10 17 23 51 29 75 7 25 27 60 50 83 41 44 127 171
152 225 9 19 26 70 37 112 28 103 30 356 4 452 -9 35 -14 70 -10 78 3 9 27 26
54 39 57 27 203 169 226 219 61 132 62 230 5 350 -21 43 -77 108 -118 137 -60
42 -54 61 38 132 153 117 260 251 357 446 35 71 69 153 76 180 6 28 20 82 30
120 22 80 26 250 8 337 -12 60 -58 208 -69 223 -4 6 -13 27 -20 49 -18 56 -59
130 -130 236 -70 104 -372 426 -475 506 -62 48 -292 202 -405 271 -84 51 -251
135 -257 129 -3 -2 65 -76 150 -164 85 -87 162 -173 171 -190 9 -17 16 -51 16
-76 0 -25 5 -56 11 -70 11 -24 101 -101 145 -124 24 -13 96 -156 148 -295 87
-233 99 -388 37 -503 -17 -33 -46 -77 -63 -98 -97 -118 -407 -277 -473 -243
-11 5 -42 30 -69 54 -121 108 -265 132 -368 61 -25 -17 -30 -18 -57 -4 -16 9
-33 21 -36 26 -13 22 -243 168 -325 207 -146 69 -328 126 -465 144 -118 15
-115 14 -115 50 0 17 -7 46 -16 64 -22 46 -111 129 -167 154 -62 28 -158 29
-212 1 -22 -11 -45 -20 -53 -20 -46 0 -205 143 -276 249 -81 121 -96 166 -96
282 0 86 3 107 21 135 50 82 347 266 534 332 156 55 520 142 596 142 14 0 33
6 43 13 16 12 16 14 2 26 -22 18 -20 38 4 51 43 23 18 50 -45 50 -38 0 -85 18
-85 33 0 6 -5 6 -12 0 -12 -9 -463 -7 -573 2 -22 2 -94 -3 -160 -10z m634 -74
c23 -13 23 -13 5 -31 -11 -11 -71 -33 -134 -50 -234 -62 -529 -189 -674 -290
-149 -103 -246 -233 -276 -370 -17 -79 -10 -184 12 -188 12 -2 19 5 24 22 3
14 12 30 19 36 15 12 37 -14 96 -113 73 -126 261 -300 434 -402 129 -77 130
-78 129 -194 -1 -184 -81 -368 -224 -512 -134 -135 -173 -144 -300 -68 -94 56
-114 82 -135 176 -21 98 -98 259 -162 338 -27 33 -75 81 -108 108 -51 41 -96
67 -265 146 -22 10 -66 104 -94 201 -70 245 -49 503 56 690 46 81 216 246 309
298 199 112 448 182 749 211 146 14 510 9 539 -8z m1723 -626 c215 -162 432
-391 548 -580 107 -175 158 -330 167 -510 12 -245 -41 -440 -174 -643 -51 -79
-253 -277 -342 -337 l-73 -50 -116 -6 c-64 -4 -122 -5 -129 -2 -17 7 -33 59
-33 112 -1 109 -64 312 -146 472 -51 99 -54 136 -14 155 14 7 64 31 113 53
102 47 149 78 235 155 34 31 69 56 77 56 23 0 27 -40 10 -95 -18 -62 -18 -65
-1 -65 16 0 47 62 72 146 14 46 18 91 18 204 -1 292 -86 545 -283 849 -75 115
-90 148 -75 164 12 11 62 -15 146 -78z m-152 -86 c0 -5 -7 -9 -15 -9 -9 0 -15
9 -15 21 0 18 2 19 15 9 8 -7 15 -16 15 -21z m-1873 -556 c88 -41 138 -159
136 -318 -1 -55 -3 -107 -5 -115 -1 -8 1 -17 6 -20 5 -3 20 29 35 70 33 95 49
104 153 90 140 -20 328 -89 483 -177 168 -95 385 -277 385 -322 0 -25 -14 -26
-86 -5 -58 17 -109 9 -134 -21 -9 -11 1 -13 64 -8 68 5 79 3 119 -20 109 -64
259 -273 321 -445 26 -72 36 -192 17 -192 -13 0 -61 66 -73 103 -28 80 -126
244 -180 299 -68 71 -152 113 -203 104 -34 -7 -85 -55 -85 -81 0 -7 -16 -43
-34 -78 -19 -36 -42 -91 -50 -122 -13 -52 -39 -95 -56 -95 -9 0 -37 65 -51
120 -6 25 -22 71 -35 102 -13 32 -24 70 -24 85 0 36 -84 118 -137 132 -104 29
-240 5 -373 -66 -220 -118 -318 -233 -395 -458 -38 -115 -50 -118 -150 -43
-115 87 -332 188 -403 188 -39 0 -20 -12 121 -75 144 -65 236 -125 325 -214
75 -76 113 -149 119 -235 l6 -65 -48 -48 c-25 -26 -53 -60 -61 -75 -26 -50
-82 -62 -152 -33 -46 19 -129 100 -187 181 -53 74 -114 130 -184 167 -60 33
-77 29 -53 -13 15 -25 15 -33 4 -62 -29 -70 -28 -71 13 -44 48 33 79 33 112 0
32 -32 27 -61 -20 -136 -98 -153 -194 -377 -243 -570 -32 -123 -38 -163 -42
-289 -5 -164 7 -246 59 -404 30 -91 53 -139 164 -348 50 -96 72 -125 150 -200
151 -148 305 -245 457 -287 120 -33 238 -23 277 23 12 15 10 17 -22 17 -76 0
-84 21 -36 98 39 63 48 105 49 214 0 48 4 89 9 92 5 4 38 -9 73 -27 69 -37 82
-61 48 -92 -28 -25 -26 -35 21 -80 22 -22 53 -62 67 -90 23 -44 26 -62 27
-150 0 -92 -2 -104 -28 -148 -95 -162 -402 -212 -704 -116 -129 41 -132 44
-159 177 -22 108 -34 142 -107 307 -40 90 -126 194 -186 225 -20 10 -58 41
-86 70 -27 28 -69 62 -92 76 -43 25 -53 43 -71 137 -9 47 -25 49 -34 5 -3 -18
-16 -40 -28 -50 -26 -21 -22 -28 35 -65 93 -57 62 -125 -33 -73 -20 11 -58 29
-84 40 -45 18 -88 63 -74 78 4 4 31 6 59 5 l52 -2 -28 23 c-15 12 -49 30 -76
40 -45 16 -76 40 -97 76 -4 8 -11 89 -15 180 -12 282 -77 509 -201 695 -50 74
-113 142 -153 162 -16 9 -33 21 -37 27 -20 30 2 231 38 341 30 91 86 185 156
260 170 182 336 272 573 310 54 9 103 19 107 21 11 7 -1 94 -14 112 -8 9 -60
12 -197 12 -213 0 -275 11 -391 67 -102 50 -208 155 -238 235 -64 173 -26 345
108 478 231 232 584 181 796 -116 79 -111 128 -244 155 -419 l12 -80 75 -70
c41 -38 86 -75 101 -82 40 -18 156 -16 194 4 l32 16 -69 13 c-38 8 -73 17 -78
22 -5 5 34 31 92 62 78 41 114 67 164 121 106 112 177 248 217 417 26 107 21
189 -16 270 -34 74 -50 90 -101 103 -72 19 -99 74 -44 91 35 10 139 -1 177
-19z m1412 -619 c103 -43 235 -215 328 -430 48 -111 56 -141 70 -248 20 -152
13 -208 -29 -248 -61 -56 -110 -43 -123 32 -7 41 -35 76 -42 53 -3 -7 -12 -22
-22 -34 -15 -18 -21 -20 -39 -10 -12 6 -22 20 -22 31 0 21 35 50 62 50 25 0
23 39 -6 126 -57 168 -197 402 -331 553 -80 91 -85 127 -20 144 31 9 135 -3
174 -19z m-1979 -355 c20 -36 12 -50 -22 -47 -28 3 -34 7 -36 32 -6 46 36 57
58 15z m1127 -10 c50 -24 118 -97 144 -155 39 -87 51 -171 46 -319 -3 -80 -12
-166 -21 -200 -43 -160 -148 -300 -248 -330 -79 -23 -106 -19 -209 31 -88 43
-253 94 -305 94 -53 0 -71 19 -102 109 -16 47 -33 102 -36 122 -9 49 10 174
39 258 30 90 70 147 169 244 89 87 201 150 296 166 76 13 177 4 227 -20z m589
-95 c50 -24 156 -143 197 -221 94 -182 138 -415 116 -621 -14 -138 -50 -254
-87 -282 -23 -18 -35 -21 -77 -15 -28 3 -76 1 -110 -6 -53 -10 -66 -10 -97 5
-85 41 -158 131 -157 196 0 14 11 43 24 65 21 33 25 53 25 115 0 115 -20 177
-72 223 l-43 37 2 117 c3 119 15 183 53 285 38 103 134 146 226 102z m955
-478 c83 -18 138 -46 196 -99 69 -63 87 -106 87 -207 0 -74 -4 -93 -29 -145
-52 -106 -203 -236 -259 -221 -32 9 -118 93 -114 112 2 10 31 29 73 46 97 41
112 44 136 22 21 -19 21 -18 44 10 13 16 28 47 33 68 21 83 -23 149 -141 212
l-68 36 -22 -23 c-12 -13 -39 -43 -59 -65 -21 -23 -51 -48 -67 -56 -40 -21
-130 -34 -168 -24 -37 10 -42 26 -45 136 -1 66 1 74 26 101 32 33 145 88 208
100 64 13 96 12 169 -3z m-496 -49 c28 -67 46 -414 25 -488 -8 -28 -24 -45
-78 -82 -38 -26 -74 -47 -79 -47 -23 0 -22 34 4 118 21 73 27 115 32 257 6
164 8 172 36 222 17 29 34 53 38 53 4 0 14 -15 22 -33z m-795 -57 c6 -12 16
-62 21 -113 6 -51 19 -132 30 -180 25 -107 22 -121 -29 -114 -48 6 -201 53
-218 68 -21 17 -17 41 12 80 31 42 96 161 114 209 14 37 38 70 51 70 5 0 13
-9 19 -20z m1344 -171 c55 -43 24 -134 -61 -175 -46 -21 -173 -25 -220 -5 -61
25 -52 56 28 97 26 13 51 29 54 34 4 6 25 25 47 41 51 36 112 40 152 8z
m-2765 -105 c25 -31 26 -42 7 -86 -7 -18 -23 -71 -34 -118 -18 -73 -20 -99
-12 -180 4 -52 15 -113 23 -135 9 -22 25 -78 37 -125 24 -96 80 -204 140 -272
49 -57 53 -91 10 -113 -53 -27 -74 -20 -157 56 -148 136 -224 170 -324 147
-47 -11 -53 -10 -65 7 -20 27 -9 104 37 271 21 78 39 148 39 155 0 24 177 365
208 402 23 26 67 22 91 -9z m744 -25 c109 -36 246 -109 404 -216 85 -58 157
-103 159 -100 2 2 -34 40 -81 84 -47 44 -85 87 -85 96 0 21 40 31 91 23 79
-13 225 -66 309 -113 103 -58 250 -196 316 -294 41 -63 64 -84 64 -60 0 22
-34 102 -66 154 -57 92 -35 115 100 102 95 -8 216 -51 301 -104 37 -23 70 -40
73 -36 7 6 -68 79 -127 123 -60 45 -34 87 80 133 65 26 176 30 230 7 48 -21
105 -72 134 -122 78 -136 85 -436 13 -618 -52 -132 -101 -154 -113 -51 -16
153 -59 307 -92 334 -14 12 -15 10 -10 -26 58 -404 46 -550 -64 -767 -21 -43
-39 -83 -39 -88 0 -7 15 -9 43 -5 40 6 44 5 55 -20 16 -35 15 -120 -2 -153
-47 -90 -170 -139 -305 -121 -72 10 -139 39 -266 115 -125 74 -143 104 -64
104 48 0 57 14 24 36 -19 12 -55 18 -123 22 -82 3 -124 -1 -277 -31 -220 -44
-337 -53 -476 -38 -182 20 -309 68 -405 154 -89 80 -146 186 -124 227 15 28
25 25 75 -21 25 -23 49 -39 52 -35 4 4 -4 28 -19 54 -57 102 -103 272 -78 287
14 8 58 -31 96 -87 28 -40 44 -48 44 -22 0 18 -46 103 -92 172 -37 54 -103
211 -127 305 -45 168 -51 347 -16 465 16 53 60 113 99 134 59 33 187 31 289
-3z m1637 -54 c15 -18 10 -45 -12 -59 -33 -20 -69 20 -54 60 7 18 50 18 66 -1z
m-3997 -40 c20 -8 60 -15 90 -15 65 0 160 -24 201 -50 63 -40 88 -67 84 -88
-3 -20 -8 -19 -118 27 -216 90 -229 94 -263 87 -18 -4 -56 -11 -85 -16 -70
-12 -135 -54 -163 -105 l-22 -40 34 31 c54 48 62 52 124 69 132 34 311 -19
451 -134 95 -79 145 -158 229 -363 16 -38 32 -68 37 -68 4 0 8 22 8 49 0 56
10 69 34 45 29 -29 47 -87 58 -184 13 -110 11 -297 -3 -323 -12 -22 13 -66 66
-117 43 -41 69 -86 61 -106 -8 -22 -52 -17 -161 17 -55 17 -127 35 -160 41
-209 33 -400 44 -485 30 -36 -7 -106 -16 -157 -21 -101 -11 -281 -74 -383
-135 -76 -46 -121 -68 -127 -63 -2 3 7 27 20 54 13 26 30 66 37 88 7 22 23 60
37 84 20 35 24 51 19 83 -6 34 -2 48 23 87 54 84 71 136 71 219 0 42 4 93 9
113 4 19 4 88 -1 152 -9 104 -7 125 11 199 28 109 61 176 123 243 66 72 100
96 162 111 69 17 97 17 139 -1z m1739 -44 c31 -27 33 -34 33 -93 -1 -85 -47
-206 -83 -215 -46 -11 -57 15 -60 151 -3 99 -1 129 12 155 21 40 55 41 98 2z
m150 -56 c-2 -17 -3 -55 -3 -85 2 -70 -6 -100 -24 -100 -24 0 -37 38 -29 83 5
23 7 57 5 75 -3 37 14 64 38 60 11 -3 15 -12 13 -33z m-1427 -120 c18 -19 41
-56 51 -82 10 -27 33 -67 51 -91 32 -43 42 -76 24 -86 -13 -8 -38 24 -65 85
-14 32 -46 76 -74 105 -59 57 -78 104 -42 104 13 0 37 -15 55 -35z m1370 -180
c18 -39 49 -96 70 -126 35 -50 37 -58 32 -109 -3 -30 -8 -62 -12 -72 -5 -13 0
-16 27 -15 l33 2 3 -61 c5 -109 -33 -147 -81 -82 -18 24 -19 33 -10 73 6 25 9
45 8 45 -2 0 -15 -6 -29 -14 -15 -8 -36 -11 -48 -8 -42 11 -138 198 -138 269
0 61 34 156 60 170 35 18 49 6 85 -72z m-413 -356 c45 -10 63 -22 127 -83 168
-163 231 -318 236 -586 2 -81 7 -136 13 -138 6 -2 18 23 28 55 30 101 17 278
-28 367 -22 42 -18 86 8 86 8 0 38 -19 65 -42 40 -34 60 -63 95 -137 53 -114
98 -173 168 -226 71 -53 79 -67 84 -156 14 -240 -119 -358 -309 -273 -80 36
-204 127 -290 213 -175 176 -320 461 -359 703 -32 206 2 251 162 217z m592
-265 c20 -8 21 -57 2 -74 -8 -6 -25 -10 -38 -8 -33 4 -37 51 -6 72 26 19 22
18 42 10z m-2704 -457 c0 -2 -11 -14 -25 -27 -27 -25 -35 -12 -9 14 14 14 34
22 34 13z m3965 -117 c44 -22 132 -69 195 -106 63 -38 142 -77 175 -88 51 -18
60 -25 63 -48 3 -29 -21 -51 -116 -107 -161 -94 -357 -147 -702 -190 -105 -14
-270 -14 -290 -1 -12 7 -15 34 -15 132 0 114 -2 127 -28 178 -15 30 -38 70
-52 89 -31 43 -32 64 0 89 21 16 47 20 182 25 129 4 180 11 278 35 193 48 192
48 310 -8z m-4055 33 c0 -10 -32 -43 -42 -43 -15 0 -8 29 10 39 20 12 32 14
32 4z m-210 -266 c0 -14 -20 -37 -32 -37 -12 0 -10 24 4 38 16 16 28 15 28 -1z
m-120 -195 c0 -31 -64 -147 -82 -150 -28 -5 -22 23 24 98 42 71 58 85 58 52z
m2748 -766 c35 -18 200 -188 239 -246 86 -127 137 -265 164 -445 30 -206 23
-304 -24 -313 -9 -2 -45 8 -79 21 -35 14 -99 30 -143 37 -44 6 -110 16 -148
22 -68 11 -117 2 -117 -22 0 -15 8 -16 153 -29 177 -16 293 -56 351 -120 19
-21 19 -27 7 -114 -22 -155 -33 -166 -136 -142 -82 19 -203 19 -271 1 -111
-29 -268 -140 -316 -224 l-18 -30 35 -21 c41 -24 45 -47 10 -63 -19 -9 -29 -7
-50 6 -18 12 -24 23 -20 33 8 22 -12 33 -63 33 -23 0 -59 7 -78 15 -32 13 -35
18 -29 42 3 16 17 42 30 59 56 74 128 211 160 306 51 154 58 212 50 410 -13
335 -26 270 107 536 64 128 121 239 128 247 15 19 24 19 58 1z m-2788 -770 c0
-8 -5 -18 -10 -21 -13 -8 -42 14 -34 26 9 15 44 10 44 -5z"/>
<path d="M4034 8479 c-18 -5 -46 -25 -63 -44 -49 -56 -37 -87 16 -45 31 24 61
26 70 4 3 -9 -1 -37 -11 -63 -39 -109 -9 -227 83 -320 31 -32 76 -69 101 -84
71 -41 182 -67 284 -67 55 0 109 -6 142 -16 50 -16 91 -14 80 5 -4 5 -27 20
-54 32 -26 13 -74 50 -108 83 -58 58 -62 66 -97 176 -19 63 -42 142 -49 175
l-13 60 -45 -3 c-40 -2 -52 3 -105 43 -58 44 -136 76 -179 74 -12 0 -35 -5
-52 -10z m237 -103 c79 -60 127 -132 148 -221 7 -27 28 -85 48 -127 30 -64 34
-80 23 -93 -38 -46 -251 17 -327 97 -68 72 -101 180 -82 269 24 111 102 143
190 75z"/>
<path d="M5923 8201 c-40 -10 -101 -32 -137 -50 -66 -32 -166 -117 -166 -140
0 -11 4 -11 19 0 207 147 243 162 371 162 90 1 172 -18 237 -54 l38 -21 -25
22 c-43 38 -110 73 -169 86 -70 17 -79 17 -168 -5z"/>
<path d="M4499 7324 c-11 -14 -10 -18 6 -30 26 -19 39 -13 43 19 3 21 -1 27
-16 27 -11 0 -26 -7 -33 -16z"/>
<path d="M4580 6840 c-6 -11 -14 -43 -17 -70 -5 -41 -3 -50 10 -50 18 0 61
105 53 127 -8 20 -34 16 -46 -7z"/>
<path d="M4395 5951 c-6 -11 9 -23 19 -14 9 9 7 23 -3 23 -6 0 -12 -4 -16 -9z"/>
<path d="M4364 5796 c-11 -29 1 -81 18 -84 24 -5 41 39 28 73 -10 27 -37 34
-46 11z"/>
<path d="M5836 7359 c-66 -57 -96 -198 -60 -275 9 -18 24 -36 35 -39 45 -15
109 57 134 150 16 57 17 74 6 114 -11 46 -41 81 -67 81 -7 0 -29 -14 -48 -31z
m54 -74 c16 -20 5 -113 -17 -137 -39 -43 -72 -6 -60 69 11 68 49 102 77 68z"/>
<path d="M5548 6779 c-25 -14 -22 -29 5 -29 25 0 47 -17 47 -37 0 -7 -16 -30
-36 -50 -52 -54 -74 -107 -74 -178 0 -121 51 -246 150 -362 33 -40 74 -80 90
-88 17 -9 44 -31 62 -50 27 -30 38 -35 75 -35 149 0 226 178 159 370 -93 267
-363 526 -478 459z m186 -125 c9 -8 16 -23 16 -33 0 -10 15 -24 38 -34 27 -12
52 -37 86 -87 69 -101 103 -188 111 -290 6 -78 4 -88 -15 -112 -38 -49 -138
-55 -218 -14 -80 41 -169 188 -198 325 -24 118 -3 203 59 241 39 24 100 26
121 4z"/>
<path d="M5671 6544 c-25 -31 -26 -66 -7 -122 16 -45 82 -146 118 -179 30 -29
93 -54 112 -47 26 10 18 31 -14 43 -17 5 -55 31 -85 57 -71 62 -100 129 -92
214 3 33 1 60 -3 60 -5 0 -18 -12 -29 -26z"/>
<path d="M6926 6038 c-2 -7 -7 -67 -10 -133 -5 -130 -26 -217 -77 -317 -30
-60 -36 -106 -19 -139 6 -10 17 -19 25 -19 12 0 15 14 15 63 0 51 6 74 35 131
48 95 66 188 63 315 -2 72 -7 106 -15 109 -7 2 -15 -2 -17 -10z"/>
<path d="M3046 6490 c-9 -23 -16 -67 -15 -103 0 -67 13 -114 22 -87 7 20 20
230 14 230 -3 0 -12 -18 -21 -40z"/>
<path d="M4010 6027 c0 -43 9 -69 21 -61 15 9 10 71 -6 84 -13 11 -15 7 -15
-23z"/>
<path d="M4865 5566 c-7 -56 6 -98 40 -126 23 -19 31 -4 17 33 -7 19 -12 49
-12 68 0 91 -35 110 -45 25z"/>
<path d="M6253 10170 c-15 -6 -21 -15 -17 -25 4 -9 -1 -24 -11 -34 -16 -18
-15 -20 6 -26 30 -10 439 5 439 16 0 4 -17 11 -37 14 -21 3 -54 10 -73 15 -19
5 -64 14 -100 20 -36 6 -84 16 -107 21 -50 11 -71 11 -100 -1z"/>
<path d="M3433 5361 c-71 -12 -61 -21 25 -21 89 0 123 7 100 21 -15 10 -64 10
-125 0z"/>
<path d="M4390 5245 c0 -18 56 -85 71 -85 27 0 32 17 10 37 -24 22 -81 56 -81
48z"/>
<path d="M4543 5148 c17 -27 31 -26 35 2 3 16 -2 20 -24 20 -25 0 -26 -1 -11
-22z"/>
<path d="M2699 5091 c-13 -11 -21 -22 -18 -25 3 -4 17 2 30 13 13 11 21 22 18
25 -3 4 -17 -2 -30 -13z"/>
<path d="M2599 4989 c-20 -20 -20 -37 0 -24 13 7 34 45 26 45 -3 0 -14 -9 -26
-21z"/>
<path d="M4641 4864 c0 -11 3 -14 6 -6 3 7 2 16 -1 19 -3 4 -6 -2 -5 -13z"/>
<path d="M4645 4807 c-9 -22 3 -87 15 -87 12 0 12 57 0 85 -7 18 -8 19 -15 2z"/>
<path d="M4646 4527 c-3 -12 -5 -60 -5 -107 l0 -85 14 50 c16 57 19 151 6 159
-5 3 -11 -4 -15 -17z"/>
<path d="M2122 4440 c-16 -21 -22 -40 -20 -62 l3 -33 16 30 c14 25 33 96 26
94 -1 0 -12 -13 -25 -29z"/>
<path d="M5146 4333 c-9 -9 -7 -33 3 -33 12 0 22 28 12 34 -5 3 -11 3 -15 -1z"/>
<path d="M2066 4269 c-29 -63 -26 -94 8 -85 11 3 27 6 34 6 16 0 15 66 -2 105
l-14 30 -26 -56z"/>
<path d="M4496 4055 c-23 -23 -21 -156 4 -270 54 -253 56 -259 72 -231 6 10 2
46 -12 102 -23 97 -24 128 -10 187 13 49 -8 218 -26 224 -7 2 -19 -3 -28 -12z"/>
<path d="M1992 3960 c0 -14 2 -19 5 -12 2 6 2 18 0 25 -3 6 -5 1 -5 -13z"/>
<path d="M1050 3784 c0 -9 5 -14 12 -12 18 6 21 28 4 28 -9 0 -16 -7 -16 -16z"/>
<path d="M5950 3757 c0 -23 23 -37 62 -37 45 0 53 25 12 40 -36 14 -74 12 -74
-3z"/>
<path d="M5715 3740 c-36 -8 -91 -36 -100 -50 -9 -14 5 -12 35 5 14 8 46 14
72 15 26 0 49 4 53 9 9 16 -27 28 -60 21z"/>
<path d="M7236 3374 c-16 -42 -7 -64 38 -85 41 -19 46 -19 75 -5 16 9 42 16
56 16 20 0 26 4 23 18 -2 13 -14 17 -44 18 -26 1 -54 10 -80 27 -45 31 -59 33
-68 11z"/>
<path d="M4617 3303 c-11 -10 -8 -63 3 -63 6 0 10 16 10 35 0 36 -2 40 -13 28z"/>
<path d="M7265 3131 c-11 -19 3 -29 56 -40 63 -14 79 -14 79 0 0 21 -123 58
-135 40z"/>
<path d="M6891 3104 c-25 -32 -20 -44 19 -44 34 0 44 12 36 46 -8 31 -29 31
-55 -2z"/>
<path d="M1840 3091 c0 -19 68 -81 89 -81 19 0 12 39 -8 50 -11 5 -23 19 -26
30 -9 27 -55 28 -55 1z"/>
<path d="M6492 3099 c-25 -10 -29 -37 -6 -46 22 -8 79 10 79 27 0 18 -44 29
-73 19z"/>
<path d="M1595 3051 c-9 -15 13 -51 31 -51 11 0 14 8 12 27 -3 28 -30 43 -43
24z"/>
<path d="M3795 2837 c-43 -25 -50 -44 -22 -61 15 -9 23 -5 48 22 27 30 38 62
22 62 -5 0 -26 -11 -48 -23z"/>
<path d="M1800 2674 c0 -9 5 -14 12 -12 18 6 21 28 4 28 -9 0 -16 -7 -16 -16z"/>
<path d="M3573 2651 c-45 -9 -85 -20 -88 -23 -4 -3 4 -16 17 -27 27 -25 46
-23 127 17 52 26 67 45 39 49 -7 0 -50 -6 -95 -16z"/>
<path d="M3828 2634 c-21 -11 -28 -22 -28 -44 0 -36 7 -37 50 -5 34 25 50 43
50 58 0 12 -43 7 -72 -9z"/>
<path d="M3727 2523 c-12 -11 -7 -43 6 -43 17 0 37 20 37 37 0 13 -32 18 -43
6z"/>
<path d="M1630 2495 c0 -8 7 -15 15 -15 8 0 15 7 15 15 0 8 -7 15 -15 15 -8 0
-15 -7 -15 -15z"/>
<path d="M3827 2463 c-13 -12 -7 -23 12 -23 10 0 21 7 25 15 5 15 -24 22 -37
8z"/>
<path d="M3363 2433 c-20 -7 -15 -30 9 -47 30 -21 120 -20 177 2 70 27 60 37
-36 37 -49 0 -99 3 -113 7 -14 3 -31 4 -37 1z"/>
<path d="M1526 2304 c-21 -31 -74 -94 -118 -140 -89 -93 -89 -115 -1 -31 55
51 173 200 173 218 0 22 -20 5 -54 -47z"/>
<path d="M394 2305 c-7 -17 4 -37 17 -30 12 8 12 45 -1 45 -6 0 -13 -7 -16
-15z"/>
<path d="M2187 2293 c-7 -12 8 -47 27 -62 13 -11 20 -11 28 -3 9 9 7 19 -8 39
-22 29 -39 39 -47 26z"/>
<path d="M3365 2150 c-4 -6 3 -10 14 -10 25 0 27 6 6 13 -8 4 -17 2 -20 -3z"/>
<path d="M2310 2090 c0 -17 150 -130 220 -165 37 -19 105 -45 151 -60 46 -14
98 -32 115 -40 29 -13 32 -12 50 12 16 20 31 26 89 33 84 10 114 19 181 53 33
17 54 34 57 49 11 40 -7 39 -57 -2 -26 -22 -51 -40 -55 -40 -3 0 -37 -5 -76
-11 -160 -23 -468 53 -609 150 -46 32 -66 38 -66 21z"/>
<path d="M6170 2026 c0 -22 29 -41 42 -28 8 8 8 15 -2 27 -16 19 -40 20 -40 1z"/>
<path d="M5430 1803 c0 -61 -19 -87 -65 -93 -38 -5 -41 -7 -49 -47 -16 -75 6
-90 80 -54 27 13 47 34 64 65 17 32 35 50 57 58 50 18 41 46 -28 86 -50 30
-59 28 -59 -15z"/>
<path d="M366 1705 c-22 -34 -13 -45 35 -45 31 0 39 4 39 18 0 20 -29 52 -47
52 -6 0 -18 -11 -27 -25z"/>
<path d="M7932 1668 c-16 -16 -15 -48 2 -48 7 0 19 7 26 16 18 21 -9 51 -28
32z"/>
<path d="M720 1595 c0 -19 57 -55 88 -55 34 0 26 24 -17 48 -45 26 -71 28 -71
7z"/>
<path d="M5197 1563 c-10 -3 -16 -8 -14 -11 2 -4 9 -22 16 -39 8 -21 20 -33
32 -33 21 0 25 24 9 64 -10 26 -11 27 -43 19z"/>
<path d="M5096 1510 c-2 -8 -5 -22 -5 -30 0 -8 -3 -29 -7 -46 -5 -26 -2 -32
22 -43 22 -10 29 -10 35 1 14 22 10 44 -11 63 -12 10 -19 24 -16 30 2 7 0 18
-4 26 -8 11 -10 11 -14 -1z"/>
<path d="M8265 1420 c-9 -15 -1 -23 21 -18 15 3 16 4 1 16 -11 9 -17 10 -22 2z"/>
<path d="M4995 1410 c-11 -18 18 -80 37 -80 26 0 25 65 -1 80 -24 12 -28 13
-36 0z"/>
<path d="M6401 1396 c-18 -22 -9 -51 17 -54 18 -3 22 1 22 21 0 33 -23 52 -39
33z"/>
<path d="M4895 1350 c-8 -16 -15 -40 -15 -53 0 -31 -18 -47 -52 -47 -20 0 -44
-15 -83 -52 -54 -51 -74 -88 -37 -73 9 5 25 7 35 6 49 -5 75 -2 108 10 50 20
69 37 69 65 0 44 18 72 47 76 38 4 45 44 10 57 -13 5 -27 17 -30 25 -10 25
-35 19 -52 -14z"/>
<path d="M2601 1324 c-30 -50 -33 -70 -15 -85 17 -14 34 1 94 82 l20 27 -40 4
c-37 3 -42 1 -59 -28z"/>
<path d="M7853 1241 c-7 -11 -39 -38 -72 -60 -60 -41 -77 -58 -68 -67 11 -11
85 37 130 85 26 27 47 53 47 56 0 13 -26 3 -37 -14z"/>
<path d="M1467 1143 c-13 -13 -7 -32 8 -27 8 4 15 12 15 20 0 15 -12 19 -23 7z"/>
<path d="M4660 1085 c-13 -14 -27 -25 -32 -25 -5 0 -26 -18 -46 -39 l-37 -39
22 -27 c13 -14 23 -33 23 -41 0 -16 23 -18 51 -4 22 12 24 37 7 75 -9 21 -9
29 4 41 13 14 22 14 52 4 29 -9 40 -9 51 0 20 17 19 49 -2 56 -10 3 -26 10
-35 15 -26 13 -32 12 -58 -16z"/>
<path d="M4435 888 c10 -33 20 -41 44 -33 26 8 27 31 2 45 -34 18 -53 13 -46
-12z"/>
<path d="M4428 623 c6 -2 18 -2 25 0 6 3 1 5 -13 5 -14 0 -19 -2 -12 -5z"/>
<path d="M5463 276 c-15 -13 -70 -51 -121 -86 -127 -85 -232 -121 -372 -127
-107 -5 -150 -19 -150 -48 0 -13 12 -14 73 -9 102 8 157 21 277 67 105 41 226
108 309 173 24 19 48 34 53 34 4 0 8 5 8 10 0 19 -48 10 -77 -14z"/>
</g>
</svg>
